<?xml version="1.0" encoding="iso-8859-1"?>
<!-- Uploaded to: SVG Repo, www.svgrepo.com, Generator: SVG Repo Mixer Tools -->
<!DOCTYPE svg PUBLIC "-//W3C//DTD SVG 1.1//EN" "http://www.w3.org/Graphics/SVG/1.1/DTD/svg11.dtd">
<svg fill="#000000" version="1.1" id="Capa_1" xmlns="http://www.w3.org/2000/svg" xmlns:xlink="http://www.w3.org/1999/xlink" 
	 width="800px" height="800px" viewBox="0 0 97.715 97.716"
	 xml:space="preserve">
<g>
	<g>
		<path d="M48.859,78.125c-1.808,0-3.271,1.464-3.271,3.27c0,1.805,1.463,3.269,3.271,3.269c1.802,0,3.267-1.464,3.267-3.269
			C52.126,79.589,50.662,78.125,48.859,78.125z"/>
		<path d="M83.292,83.378c-0.966-18.687-7.067-29.437-13.759-35.195V35.817c2.255-1.254,3.535-4.083,4.085-7.301
			c0.845-4.935-0.929-7.341-4.051-7.88C68.506,9.045,65.173,0.006,48.856,0C32.939-0.005,29.208,9.039,28.147,20.624h-0.08v0.029
			c-3.072,0.566-4.809,2.971-3.97,7.863c0.539,3.165,1.756,5.977,4.084,7.301v12.366c-6.861,5.906-12.799,16.614-13.757,35.192
			c-0.202,3.913,2.428,7.27,5.873,7.499c0.125,0.008,6.747,0.345,6.747,0.345c4.114,4.674,12.591,6.497,21.96,6.497
			c9.944,0,17.744-2.18,21.669-6.497c0,0,6.619-0.336,6.741-0.345C80.864,90.645,83.49,87.288,83.292,83.378z M50.361,56.869
			l14.769-8.979l-1.438,16.152L50.361,56.869z M52.681,17.407c1.024,2.053,3.958,6.073,11.601,7.877
			c-0.718,11.896-6.979,20.304-15.425,20.304c-8.15,0-13.875-7.605-15.081-17.405C44.64,27.436,51.602,18.831,52.681,17.407z
			 M47.294,56.868l-13.27,7.171l-1.438-16.144L47.294,56.868z M76.833,84.7c-0.936,0.049-4.456,0.228-5.872,0.3v-6.232
			c0-0.856-0.693-1.551-1.549-1.551s-1.551,0.693-1.551,1.551v6.391l-0.053,0.003l-1.721,1.892c-2.093,2.301-7.429,4.461-17.9,4.461
			c-8.598,0-14.535-2.164-16.494-4.39l-1.84-1.959v-6.399c0-0.855-0.691-1.55-1.549-1.55c-0.856,0-1.549,0.693-1.549,1.55v6.239
			c-1.346-0.067-4.98-0.258-5.872-0.306c-0.11-0.133-0.299-0.469-0.271-1.005c0.791-15.378,5.224-23.956,9.493-28.707L31.354,69
			l12.855-6.895v10.004h9.293V62.105l12.855,6.893l1.249-14.02c4.257,4.746,8.695,13.328,9.492,28.717
			C77.128,84.232,76.94,84.566,76.833,84.7z"/>
	</g>
</g>
</svg>